<mxfile host="app.diagrams.net" modified="2021-01-10T18:29:37.460Z" agent="5.0 (Windows NT 10.0; Win64; x64) AppleWebKit/537.36 (KHTML, like Gecko) Chrome/87.0.4280.141 Safari/537.36" etag="CuSMxJxwQ9ikDnOZA_VF" version="14.1.9" type="github" pages="3">
  <diagram name="Page-1" id="13e1069c-82ec-6db2-03f1-153e76fe0fe0">
    <mxGraphModel dx="1471" dy="685" grid="1" gridSize="10" guides="1" tooltips="1" connect="1" arrows="1" fold="1" page="1" pageScale="1" pageWidth="1100" pageHeight="850" background="#ffffff" math="0" shadow="0">
      <root>
        <mxCell id="0" />
        <mxCell id="1" parent="0" />
        <mxCell id="7baba1c4bc27f4b0-2" value="register&lt;br&gt;Controller" style="shape=umlLifeline;perimeter=lifelinePerimeter;whiteSpace=wrap;html=1;container=1;collapsible=0;recursiveResize=0;outlineConnect=0;rounded=1;shadow=0;comic=0;labelBackgroundColor=none;strokeWidth=1;fontFamily=Verdana;fontSize=12;align=center;" parent="1" vertex="1">
          <mxGeometry x="260" y="80" width="100" height="580" as="geometry" />
        </mxCell>
        <mxCell id="Aa1WEz_jSSBTIPIqc46A-5" value="" style="html=1;points=[];perimeter=orthogonalPerimeter;" vertex="1" parent="7baba1c4bc27f4b0-2">
          <mxGeometry x="45" y="80" width="10" height="410" as="geometry" />
        </mxCell>
        <mxCell id="Aa1WEz_jSSBTIPIqc46A-28" value="10. MemberDTO" style="html=1;verticalAlign=bottom;endArrow=block;" edge="1" parent="7baba1c4bc27f4b0-2" target="7baba1c4bc27f4b0-2">
          <mxGeometry x="0.0355" width="80" relative="1" as="geometry">
            <mxPoint x="56" y="420" as="sourcePoint" />
            <mxPoint x="110" y="460" as="targetPoint" />
            <Array as="points">
              <mxPoint x="100" y="420" />
              <mxPoint x="100" y="450" />
            </Array>
            <mxPoint as="offset" />
          </mxGeometry>
        </mxCell>
        <mxCell id="7baba1c4bc27f4b0-3" value="register&lt;br&gt;Service" style="shape=umlLifeline;perimeter=lifelinePerimeter;whiteSpace=wrap;html=1;container=1;collapsible=0;recursiveResize=0;outlineConnect=0;rounded=1;shadow=0;comic=0;labelBackgroundColor=none;strokeWidth=1;fontFamily=Verdana;fontSize=12;align=center;" parent="1" vertex="1">
          <mxGeometry x="430" y="80" width="100" height="580" as="geometry" />
        </mxCell>
        <mxCell id="Aa1WEz_jSSBTIPIqc46A-7" value="" style="html=1;points=[];perimeter=orthogonalPerimeter;" vertex="1" parent="7baba1c4bc27f4b0-3">
          <mxGeometry x="45" y="100" width="10" height="180" as="geometry" />
        </mxCell>
        <mxCell id="Aa1WEz_jSSBTIPIqc46A-6" value="" style="html=1;verticalAlign=bottom;endArrow=block;" edge="1" parent="7baba1c4bc27f4b0-3" source="Aa1WEz_jSSBTIPIqc46A-7" target="7baba1c4bc27f4b0-3">
          <mxGeometry x="NaN" y="32" width="80" relative="1" as="geometry">
            <mxPoint x="-150" y="100" as="sourcePoint" />
            <mxPoint x="-80" y="100" as="targetPoint" />
            <Array as="points" />
            <mxPoint x="31" y="-10" as="offset" />
          </mxGeometry>
        </mxCell>
        <mxCell id="7baba1c4bc27f4b0-4" value="registerDAO" style="shape=umlLifeline;perimeter=lifelinePerimeter;whiteSpace=wrap;html=1;container=1;collapsible=0;recursiveResize=0;outlineConnect=0;rounded=1;shadow=0;comic=0;labelBackgroundColor=none;strokeWidth=1;fontFamily=Verdana;fontSize=12;align=center;" parent="1" vertex="1">
          <mxGeometry x="590" y="80" width="100" height="580" as="geometry" />
        </mxCell>
        <mxCell id="Aa1WEz_jSSBTIPIqc46A-13" value="" style="html=1;points=[];perimeter=orthogonalPerimeter;" vertex="1" parent="7baba1c4bc27f4b0-4">
          <mxGeometry x="45" y="120" width="10" height="50" as="geometry" />
        </mxCell>
        <mxCell id="7baba1c4bc27f4b0-8" value="registerForm" style="shape=umlLifeline;perimeter=lifelinePerimeter;whiteSpace=wrap;html=1;container=1;collapsible=0;recursiveResize=0;outlineConnect=0;rounded=1;shadow=0;comic=0;labelBackgroundColor=none;strokeWidth=1;fontFamily=Verdana;fontSize=12;align=center;" parent="1" vertex="1">
          <mxGeometry x="100" y="80" width="100" height="580" as="geometry" />
        </mxCell>
        <mxCell id="Aa1WEz_jSSBTIPIqc46A-4" value="1:&amp;nbsp;idCheck(id)" style="html=1;verticalAlign=bottom;endArrow=block;entryX=0.127;entryY=0.027;entryDx=0;entryDy=0;entryPerimeter=0;" edge="1" parent="1" target="Aa1WEz_jSSBTIPIqc46A-5">
          <mxGeometry width="80" relative="1" as="geometry">
            <mxPoint x="150" y="170" as="sourcePoint" />
            <mxPoint x="305" y="171" as="targetPoint" />
            <Array as="points">
              <mxPoint x="200" y="170" />
            </Array>
          </mxGeometry>
        </mxCell>
        <mxCell id="Aa1WEz_jSSBTIPIqc46A-8" value="&amp;nbsp;2. int : idCheck(id)" style="html=1;verticalAlign=bottom;endArrow=block;" edge="1" parent="1" source="Aa1WEz_jSSBTIPIqc46A-5" target="Aa1WEz_jSSBTIPIqc46A-7">
          <mxGeometry x="0.05" width="80" relative="1" as="geometry">
            <mxPoint x="355" y="180" as="sourcePoint" />
            <mxPoint x="559.5" y="180" as="targetPoint" />
            <Array as="points">
              <mxPoint x="460" y="200" />
            </Array>
            <mxPoint as="offset" />
          </mxGeometry>
        </mxCell>
        <mxCell id="Aa1WEz_jSSBTIPIqc46A-19" value="3. int : id 중복확인" style="html=1;verticalAlign=bottom;endArrow=block;exitX=1.078;exitY=0.495;exitDx=0;exitDy=0;exitPerimeter=0;" edge="1" parent="1">
          <mxGeometry width="80" relative="1" as="geometry">
            <mxPoint x="485.78" y="220.00000000000006" as="sourcePoint" />
            <mxPoint x="635" y="220.00000000000006" as="targetPoint" />
            <Array as="points" />
          </mxGeometry>
        </mxCell>
        <mxCell id="Aa1WEz_jSSBTIPIqc46A-21" value="4.&amp;nbsp; int :return&amp;nbsp;&amp;nbsp;" style="html=1;verticalAlign=bottom;endArrow=open;dashed=1;endSize=8;exitX=0.06;exitY=0.855;exitDx=0;exitDy=0;exitPerimeter=0;" edge="1" parent="1">
          <mxGeometry relative="1" as="geometry">
            <mxPoint x="635.5999999999999" y="240.00000000000003" as="sourcePoint" />
            <mxPoint x="149.81034482758616" y="240.15" as="targetPoint" />
            <Array as="points">
              <mxPoint x="570" y="240.15" />
              <mxPoint x="540" y="240.15" />
              <mxPoint x="530" y="240.15" />
              <mxPoint x="410" y="240.15" />
            </Array>
          </mxGeometry>
        </mxCell>
        <mxCell id="Aa1WEz_jSSBTIPIqc46A-22" value="5: nicknameCheck(nickname)" style="html=1;verticalAlign=bottom;endArrow=block;entryX=0.127;entryY=0.027;entryDx=0;entryDy=0;entryPerimeter=0;" edge="1" parent="1">
          <mxGeometry width="80" relative="1" as="geometry">
            <mxPoint x="150.1900000000001" y="270" as="sourcePoint" />
            <mxPoint x="306.4600000000001" y="270.26" as="targetPoint" />
            <Array as="points">
              <mxPoint x="200.19" y="270" />
            </Array>
          </mxGeometry>
        </mxCell>
        <mxCell id="Aa1WEz_jSSBTIPIqc46A-23" value="&amp;nbsp;6. int : nicknameCheck(nickname)" style="html=1;verticalAlign=bottom;endArrow=block;" edge="1" parent="1">
          <mxGeometry x="0.05" width="80" relative="1" as="geometry">
            <mxPoint x="315.19" y="300" as="sourcePoint" />
            <mxPoint x="475.19" y="300" as="targetPoint" />
            <Array as="points">
              <mxPoint x="460.19" y="300" />
            </Array>
            <mxPoint as="offset" />
          </mxGeometry>
        </mxCell>
        <mxCell id="Aa1WEz_jSSBTIPIqc46A-24" value="7. int : nickname 중복확인" style="html=1;verticalAlign=bottom;endArrow=block;exitX=1.078;exitY=0.495;exitDx=0;exitDy=0;exitPerimeter=0;" edge="1" parent="1">
          <mxGeometry width="80" relative="1" as="geometry">
            <mxPoint x="485.96999999999997" y="320" as="sourcePoint" />
            <mxPoint x="635.19" y="320" as="targetPoint" />
            <Array as="points" />
          </mxGeometry>
        </mxCell>
        <mxCell id="Aa1WEz_jSSBTIPIqc46A-25" value="8.&amp;nbsp; int :return&amp;nbsp;&amp;nbsp;" style="html=1;verticalAlign=bottom;endArrow=open;dashed=1;endSize=8;exitX=0.06;exitY=0.855;exitDx=0;exitDy=0;exitPerimeter=0;" edge="1" parent="1">
          <mxGeometry relative="1" as="geometry">
            <mxPoint x="635.79" y="340" as="sourcePoint" />
            <mxPoint x="150.00034482758616" y="340.15" as="targetPoint" />
            <Array as="points">
              <mxPoint x="570.19" y="340.15" />
              <mxPoint x="540.19" y="340.15" />
              <mxPoint x="530.19" y="340.15" />
              <mxPoint x="410.19" y="340.15" />
            </Array>
          </mxGeometry>
        </mxCell>
        <mxCell id="Aa1WEz_jSSBTIPIqc46A-26" value="" style="html=1;points=[];perimeter=orthogonalPerimeter;" vertex="1" parent="1">
          <mxGeometry x="635" y="300" width="10" height="50" as="geometry" />
        </mxCell>
        <mxCell id="Aa1WEz_jSSBTIPIqc46A-27" value="9.&amp;nbsp;registerCheck" style="html=1;verticalAlign=bottom;endArrow=block;entryX=0.138;entryY=0.782;entryDx=0;entryDy=0;entryPerimeter=0;" edge="1" parent="1" target="Aa1WEz_jSSBTIPIqc46A-5">
          <mxGeometry width="80" relative="1" as="geometry">
            <mxPoint x="150" y="480" as="sourcePoint" />
            <mxPoint x="300" y="480" as="targetPoint" />
          </mxGeometry>
        </mxCell>
        <mxCell id="Aa1WEz_jSSBTIPIqc46A-29" value="" style="html=1;points=[];perimeter=orthogonalPerimeter;" vertex="1" parent="1">
          <mxGeometry x="475" y="510" width="10" height="80" as="geometry" />
        </mxCell>
        <mxCell id="Aa1WEz_jSSBTIPIqc46A-33" value="11.register(MemberDTO)" style="html=1;verticalAlign=bottom;endArrow=block;exitX=0.935;exitY=0.951;exitDx=0;exitDy=0;exitPerimeter=0;entryX=0.126;entryY=0.511;entryDx=0;entryDy=0;entryPerimeter=0;" edge="1" parent="1" source="Aa1WEz_jSSBTIPIqc46A-5" target="Aa1WEz_jSSBTIPIqc46A-29">
          <mxGeometry width="80" relative="1" as="geometry">
            <mxPoint x="320" y="550" as="sourcePoint" />
            <mxPoint x="400" y="550" as="targetPoint" />
          </mxGeometry>
        </mxCell>
        <mxCell id="Aa1WEz_jSSBTIPIqc46A-34" value="12. int : 회원정보 입력" style="html=1;verticalAlign=bottom;endArrow=block;" edge="1" parent="1" target="7baba1c4bc27f4b0-4">
          <mxGeometry width="80" relative="1" as="geometry">
            <mxPoint x="485" y="570" as="sourcePoint" />
            <mxPoint x="565" y="570" as="targetPoint" />
            <Array as="points">
              <mxPoint x="525" y="570" />
            </Array>
          </mxGeometry>
        </mxCell>
        <mxCell id="Aa1WEz_jSSBTIPIqc46A-35" value="return" style="html=1;verticalAlign=bottom;endArrow=open;dashed=1;endSize=8;exitX=0.5;exitY=0.931;exitDx=0;exitDy=0;exitPerimeter=0;" edge="1" parent="1" source="7baba1c4bc27f4b0-4" target="7baba1c4bc27f4b0-8">
          <mxGeometry x="0.0194" relative="1" as="geometry">
            <mxPoint x="635" y="620" as="sourcePoint" />
            <mxPoint x="555" y="620" as="targetPoint" />
            <mxPoint as="offset" />
          </mxGeometry>
        </mxCell>
      </root>
    </mxGraphModel>
  </diagram>
  <diagram id="W41g_MDUZ5DiayNe7DVt" name="Page-2">
    <mxGraphModel dx="871" dy="485" grid="1" gridSize="10" guides="1" tooltips="1" connect="1" arrows="1" fold="1" page="1" pageScale="1" pageWidth="827" pageHeight="1169" math="0" shadow="0">
      <root>
        <mxCell id="bxrx1N-2mU9F1FX8SwXE-0" />
        <mxCell id="bxrx1N-2mU9F1FX8SwXE-1" parent="bxrx1N-2mU9F1FX8SwXE-0" />
        <mxCell id="bxrx1N-2mU9F1FX8SwXE-3" value="myPage" style="shape=umlLifeline;perimeter=lifelinePerimeter;whiteSpace=wrap;html=1;container=1;collapsible=0;recursiveResize=0;outlineConnect=0;" vertex="1" parent="bxrx1N-2mU9F1FX8SwXE-1">
          <mxGeometry x="120" y="110" width="100" height="400" as="geometry" />
        </mxCell>
        <mxCell id="bxrx1N-2mU9F1FX8SwXE-4" value="Register&lt;br&gt;Controller" style="shape=umlLifeline;perimeter=lifelinePerimeter;whiteSpace=wrap;html=1;container=1;collapsible=0;recursiveResize=0;outlineConnect=0;" vertex="1" parent="bxrx1N-2mU9F1FX8SwXE-1">
          <mxGeometry x="270" y="110" width="100" height="400" as="geometry" />
        </mxCell>
        <mxCell id="bxrx1N-2mU9F1FX8SwXE-20" value="" style="html=1;points=[];perimeter=orthogonalPerimeter;" vertex="1" parent="bxrx1N-2mU9F1FX8SwXE-4">
          <mxGeometry x="45" y="200" width="10" height="80" as="geometry" />
        </mxCell>
        <mxCell id="bxrx1N-2mU9F1FX8SwXE-5" value="Register&lt;br&gt;Service" style="shape=umlLifeline;perimeter=lifelinePerimeter;whiteSpace=wrap;html=1;container=1;collapsible=0;recursiveResize=0;outlineConnect=0;" vertex="1" parent="bxrx1N-2mU9F1FX8SwXE-1">
          <mxGeometry x="420" y="110" width="100" height="400" as="geometry" />
        </mxCell>
        <mxCell id="bxrx1N-2mU9F1FX8SwXE-26" value="" style="html=1;points=[];perimeter=orthogonalPerimeter;" vertex="1" parent="bxrx1N-2mU9F1FX8SwXE-5">
          <mxGeometry x="45" y="220" width="10" height="70" as="geometry" />
        </mxCell>
        <mxCell id="bxrx1N-2mU9F1FX8SwXE-6" value="RegisterDAO" style="shape=umlLifeline;perimeter=lifelinePerimeter;whiteSpace=wrap;html=1;container=1;collapsible=0;recursiveResize=0;outlineConnect=0;" vertex="1" parent="bxrx1N-2mU9F1FX8SwXE-1">
          <mxGeometry x="580" y="110" width="100" height="400" as="geometry" />
        </mxCell>
        <mxCell id="bxrx1N-2mU9F1FX8SwXE-17" value="" style="html=1;points=[];perimeter=orthogonalPerimeter;" vertex="1" parent="bxrx1N-2mU9F1FX8SwXE-6">
          <mxGeometry x="45" y="140" width="10" height="50" as="geometry" />
        </mxCell>
        <mxCell id="bxrx1N-2mU9F1FX8SwXE-28" value="" style="html=1;points=[];perimeter=orthogonalPerimeter;" vertex="1" parent="bxrx1N-2mU9F1FX8SwXE-6">
          <mxGeometry x="45" y="240" width="10" height="70" as="geometry" />
        </mxCell>
        <mxCell id="bxrx1N-2mU9F1FX8SwXE-7" value="" style="endArrow=block;endFill=1;html=1;edgeStyle=orthogonalEdgeStyle;align=left;verticalAlign=top;" edge="1" parent="bxrx1N-2mU9F1FX8SwXE-1" source="bxrx1N-2mU9F1FX8SwXE-3" target="bxrx1N-2mU9F1FX8SwXE-4">
          <mxGeometry x="0.0723" relative="1" as="geometry">
            <mxPoint x="180" y="200" as="sourcePoint" />
            <mxPoint x="320" y="200" as="targetPoint" />
            <Array as="points">
              <mxPoint x="260" y="200" />
              <mxPoint x="260" y="200" />
            </Array>
            <mxPoint as="offset" />
          </mxGeometry>
        </mxCell>
        <mxCell id="bxrx1N-2mU9F1FX8SwXE-11" value="1. myPage(id)" style="edgeLabel;html=1;align=center;verticalAlign=middle;resizable=0;points=[];" vertex="1" connectable="0" parent="bxrx1N-2mU9F1FX8SwXE-7">
          <mxGeometry x="0.1435" relative="1" as="geometry">
            <mxPoint x="-15.5" y="-10" as="offset" />
          </mxGeometry>
        </mxCell>
        <mxCell id="bxrx1N-2mU9F1FX8SwXE-14" value="" style="endArrow=block;endFill=1;html=1;edgeStyle=orthogonalEdgeStyle;align=left;verticalAlign=top;" edge="1" parent="bxrx1N-2mU9F1FX8SwXE-1">
          <mxGeometry x="-0.75" y="-10" relative="1" as="geometry">
            <mxPoint x="320" y="230" as="sourcePoint" />
            <mxPoint x="470" y="230" as="targetPoint" />
            <mxPoint as="offset" />
          </mxGeometry>
        </mxCell>
        <mxCell id="bxrx1N-2mU9F1FX8SwXE-16" value="2.&amp;nbsp;myRegister(id)" style="text;html=1;align=center;verticalAlign=middle;resizable=0;points=[];autosize=1;" vertex="1" parent="bxrx1N-2mU9F1FX8SwXE-1">
          <mxGeometry x="335" y="210" width="110" height="20" as="geometry" />
        </mxCell>
        <mxCell id="bxrx1N-2mU9F1FX8SwXE-23" value="4. 회원 정보 model반환" style="html=1;verticalAlign=bottom;endArrow=open;dashed=1;endSize=8;exitX=0;exitY=0.95;" edge="1" parent="bxrx1N-2mU9F1FX8SwXE-1">
          <mxGeometry relative="1" as="geometry">
            <mxPoint x="169.66666666666674" y="290" as="targetPoint" />
            <mxPoint x="625" y="290" as="sourcePoint" />
            <Array as="points">
              <mxPoint x="590" y="290" />
            </Array>
          </mxGeometry>
        </mxCell>
        <mxCell id="bxrx1N-2mU9F1FX8SwXE-24" value="3. 회원정보&amp;nbsp; 호출" style="html=1;verticalAlign=bottom;endArrow=block;entryX=0;entryY=0;" edge="1" parent="bxrx1N-2mU9F1FX8SwXE-1">
          <mxGeometry relative="1" as="geometry">
            <mxPoint x="469.66666666666674" y="260.0000000000001" as="sourcePoint" />
            <mxPoint x="625" y="260.0000000000001" as="targetPoint" />
          </mxGeometry>
        </mxCell>
        <mxCell id="bxrx1N-2mU9F1FX8SwXE-25" value="5. modifyCheck(MemberDTO)" style="html=1;verticalAlign=bottom;endArrow=block;entryX=0.06;entryY=0.31;entryDx=0;entryDy=0;entryPerimeter=0;" edge="1" parent="bxrx1N-2mU9F1FX8SwXE-1" source="bxrx1N-2mU9F1FX8SwXE-3" target="bxrx1N-2mU9F1FX8SwXE-20">
          <mxGeometry width="80" relative="1" as="geometry">
            <mxPoint x="180" y="334.65999999999997" as="sourcePoint" />
            <mxPoint x="310" y="335" as="targetPoint" />
          </mxGeometry>
        </mxCell>
        <mxCell id="bxrx1N-2mU9F1FX8SwXE-27" value="6. modifyCheck(MemberDTO)" style="html=1;verticalAlign=bottom;endArrow=block;exitX=0.991;exitY=0.494;exitDx=0;exitDy=0;exitPerimeter=0;entryX=0;entryY=0.273;entryDx=0;entryDy=0;entryPerimeter=0;" edge="1" parent="bxrx1N-2mU9F1FX8SwXE-1" source="bxrx1N-2mU9F1FX8SwXE-20" target="bxrx1N-2mU9F1FX8SwXE-26">
          <mxGeometry x="0.072" width="80" relative="1" as="geometry">
            <mxPoint x="330" y="350" as="sourcePoint" />
            <mxPoint x="460" y="350" as="targetPoint" />
            <mxPoint as="offset" />
          </mxGeometry>
        </mxCell>
        <mxCell id="bxrx1N-2mU9F1FX8SwXE-30" value="" style="endArrow=block;endFill=1;html=1;edgeStyle=orthogonalEdgeStyle;align=left;verticalAlign=top;exitX=1.252;exitY=0.42;exitDx=0;exitDy=0;exitPerimeter=0;entryX=-0.029;entryY=0.145;entryDx=0;entryDy=0;entryPerimeter=0;" edge="1" parent="bxrx1N-2mU9F1FX8SwXE-1" source="bxrx1N-2mU9F1FX8SwXE-26" target="bxrx1N-2mU9F1FX8SwXE-28">
          <mxGeometry x="-1" relative="1" as="geometry">
            <mxPoint x="480" y="360" as="sourcePoint" />
            <mxPoint x="620" y="360" as="targetPoint" />
          </mxGeometry>
        </mxCell>
        <mxCell id="bxrx1N-2mU9F1FX8SwXE-32" value="7. 수정된 데이터값 변경" style="edgeLabel;html=1;align=center;verticalAlign=middle;resizable=0;points=[];" vertex="1" connectable="0" parent="bxrx1N-2mU9F1FX8SwXE-30">
          <mxGeometry x="-0.288" relative="1" as="geometry">
            <mxPoint x="19.28" y="-9.4" as="offset" />
          </mxGeometry>
        </mxCell>
        <mxCell id="bxrx1N-2mU9F1FX8SwXE-33" value="8. 변경된 데이터값 다시 반환" style="html=1;verticalAlign=bottom;endArrow=open;dashed=1;endSize=8;exitX=0.063;exitY=0.818;exitDx=0;exitDy=0;exitPerimeter=0;" edge="1" parent="bxrx1N-2mU9F1FX8SwXE-1" source="bxrx1N-2mU9F1FX8SwXE-28">
          <mxGeometry relative="1" as="geometry">
            <mxPoint x="620" y="406" as="sourcePoint" />
            <mxPoint x="320" y="407" as="targetPoint" />
          </mxGeometry>
        </mxCell>
        <mxCell id="bxrx1N-2mU9F1FX8SwXE-35" value="9. 변경된 데이터 값과 id를 반환" style="html=1;verticalAlign=bottom;endArrow=open;dashed=1;endSize=8;" edge="1" parent="bxrx1N-2mU9F1FX8SwXE-1" target="bxrx1N-2mU9F1FX8SwXE-3">
          <mxGeometry relative="1" as="geometry">
            <mxPoint x="320" y="440" as="sourcePoint" />
            <mxPoint x="240" y="440" as="targetPoint" />
          </mxGeometry>
        </mxCell>
      </root>
    </mxGraphModel>
  </diagram>
  <diagram id="GN0NPFhR8ZVXYlRZ-Ys3" name="Page-3">
    <mxGraphModel dx="871" dy="485" grid="1" gridSize="10" guides="1" tooltips="1" connect="1" arrows="1" fold="1" page="1" pageScale="1" pageWidth="827" pageHeight="1169" math="0" shadow="0">
      <root>
        <mxCell id="paqF1UYzaimnTLIQGU7g-0" />
        <mxCell id="paqF1UYzaimnTLIQGU7g-1" parent="paqF1UYzaimnTLIQGU7g-0" />
        <mxCell id="wE1i4P5x_SLQ2fgnlWnD-0" value="password&lt;br&gt;Modify" style="shape=umlLifeline;perimeter=lifelinePerimeter;whiteSpace=wrap;html=1;container=1;collapsible=0;recursiveResize=0;outlineConnect=0;" vertex="1" parent="paqF1UYzaimnTLIQGU7g-1">
          <mxGeometry x="120" y="110" width="100" height="400" as="geometry" />
        </mxCell>
        <mxCell id="wE1i4P5x_SLQ2fgnlWnD-1" value="Register&lt;br&gt;Controller" style="shape=umlLifeline;perimeter=lifelinePerimeter;whiteSpace=wrap;html=1;container=1;collapsible=0;recursiveResize=0;outlineConnect=0;" vertex="1" parent="paqF1UYzaimnTLIQGU7g-1">
          <mxGeometry x="270" y="110" width="100" height="400" as="geometry" />
        </mxCell>
        <mxCell id="wE1i4P5x_SLQ2fgnlWnD-3" value="Register&lt;br&gt;Service" style="shape=umlLifeline;perimeter=lifelinePerimeter;whiteSpace=wrap;html=1;container=1;collapsible=0;recursiveResize=0;outlineConnect=0;" vertex="1" parent="paqF1UYzaimnTLIQGU7g-1">
          <mxGeometry x="420" y="110" width="100" height="400" as="geometry" />
        </mxCell>
        <mxCell id="wE1i4P5x_SLQ2fgnlWnD-5" value="RegisterDAO" style="shape=umlLifeline;perimeter=lifelinePerimeter;whiteSpace=wrap;html=1;container=1;collapsible=0;recursiveResize=0;outlineConnect=0;" vertex="1" parent="paqF1UYzaimnTLIQGU7g-1">
          <mxGeometry x="580" y="110" width="100" height="400" as="geometry" />
        </mxCell>
        <mxCell id="wE1i4P5x_SLQ2fgnlWnD-8" value="" style="endArrow=block;endFill=1;html=1;edgeStyle=orthogonalEdgeStyle;align=left;verticalAlign=top;" edge="1" parent="paqF1UYzaimnTLIQGU7g-1" source="wE1i4P5x_SLQ2fgnlWnD-0" target="wE1i4P5x_SLQ2fgnlWnD-1">
          <mxGeometry x="0.0723" relative="1" as="geometry">
            <mxPoint x="180" y="200" as="sourcePoint" />
            <mxPoint x="320" y="200" as="targetPoint" />
            <Array as="points">
              <mxPoint x="260" y="200" />
              <mxPoint x="260" y="200" />
            </Array>
            <mxPoint as="offset" />
          </mxGeometry>
        </mxCell>
        <mxCell id="wE1i4P5x_SLQ2fgnlWnD-9" value="1.&amp;nbsp;" style="edgeLabel;html=1;align=center;verticalAlign=middle;resizable=0;points=[];" vertex="1" connectable="0" parent="wE1i4P5x_SLQ2fgnlWnD-8">
          <mxGeometry x="0.1435" relative="1" as="geometry">
            <mxPoint x="-15.5" y="-10" as="offset" />
          </mxGeometry>
        </mxCell>
        <mxCell id="wE1i4P5x_SLQ2fgnlWnD-10" value="" style="endArrow=block;endFill=1;html=1;edgeStyle=orthogonalEdgeStyle;align=left;verticalAlign=top;" edge="1" parent="paqF1UYzaimnTLIQGU7g-1">
          <mxGeometry x="-0.75" y="-10" relative="1" as="geometry">
            <mxPoint x="320" y="230" as="sourcePoint" />
            <mxPoint x="470" y="230" as="targetPoint" />
            <mxPoint as="offset" />
          </mxGeometry>
        </mxCell>
        <mxCell id="wE1i4P5x_SLQ2fgnlWnD-11" value="2.&amp;nbsp;myRegister(id)" style="text;html=1;align=center;verticalAlign=middle;resizable=0;points=[];autosize=1;" vertex="1" parent="paqF1UYzaimnTLIQGU7g-1">
          <mxGeometry x="335" y="210" width="110" height="20" as="geometry" />
        </mxCell>
        <mxCell id="wE1i4P5x_SLQ2fgnlWnD-13" value="3. 회원정보&amp;nbsp; 호출" style="html=1;verticalAlign=bottom;endArrow=block;entryX=0;entryY=0;" edge="1" parent="paqF1UYzaimnTLIQGU7g-1">
          <mxGeometry relative="1" as="geometry">
            <mxPoint x="469.66666666666674" y="260.0000000000001" as="sourcePoint" />
            <mxPoint x="625" y="260.0000000000001" as="targetPoint" />
          </mxGeometry>
        </mxCell>
        <mxCell id="wE1i4P5x_SLQ2fgnlWnD-20" value="login" style="shape=umlLifeline;perimeter=lifelinePerimeter;whiteSpace=wrap;html=1;container=1;collapsible=0;recursiveResize=0;outlineConnect=0;" vertex="1" parent="paqF1UYzaimnTLIQGU7g-1">
          <mxGeometry x="740" y="110" width="100" height="400" as="geometry" />
        </mxCell>
      </root>
    </mxGraphModel>
  </diagram>
</mxfile>
